<?xml version="1.0" encoding="utf-8"?>
<!-- Generator: Adobe Illustrator 21.0.0, SVG Export Plug-In . SVG Version: 6.00 Build 0)  -->
<svg version="1.1" id="Layer_1" xmlns="http://www.w3.org/2000/svg" xmlns:xlink="http://www.w3.org/1999/xlink" x="0px" y="0px"
	 viewBox="0 0 200 200" style="enable-background:new 0 0 200 200;" xml:space="preserve">
<style type="text/css">
	.st0{fill:#0900BC;}
</style>
<g id="Layer_2">
	<g>
		<path class="st0" d="M113.9,141.4c15.6,0,28.4-6.9,38.9-20.6l31.2,29.8c-18.3,22-42.2,33-71,33c-23.8,0-44.4-8.2-60.9-24.7
			S27.3,121.2,27.3,96s8.2-45.8,25.2-62.3C69.5,17.2,89.6,9,113.9,9c26.6,0,48.6,9.6,66.4,28.9l-31.2,29.3
			c-9.2-10.5-20.6-16-34.8-16c-12.8,0-23.4,4.6-31.6,13.7C74.5,74,70.4,84.6,70.4,96c0,11.9,4.1,22.5,12.4,31.6
			C91,136.8,101.1,141.4,113.9,141.4z"/>
	</g>
</g>
<g id="Layer_1_1_">
	<path class="st0" d="M197.5,72.8"/>
</g>
</svg>
