<svg width="14" height="15" viewBox="0 0 14 15" fill="none" xmlns="http://www.w3.org/2000/svg">
<path d="M3.57153 1.12966C4.33353 1.68499 4.92686 2.44299 5.43353 3.16832L5.72819 3.59766L6.00619 4.00766C6.14525 4.21081 6.2047 4.45802 6.17323 4.70219C6.14176 4.94635 6.02155 5.17041 5.83553 5.33166L4.53486 6.29766C4.47202 6.34303 4.42779 6.40968 4.41038 6.4852C4.39297 6.56073 4.40356 6.64002 4.44019 6.70832C4.73486 7.24366 5.25886 8.04099 5.85886 8.64099C6.45953 9.24099 7.29419 9.79966 7.86686 10.1277C7.93866 10.168 8.02318 10.1792 8.10303 10.1591C8.18288 10.1391 8.25201 10.0891 8.29619 10.0197L9.14286 8.73099C9.29852 8.52422 9.52814 8.3857 9.78364 8.34444C10.0391 8.30319 10.3007 8.36239 10.5135 8.50966L10.9555 8.81566C11.7815 9.38899 12.6689 10.0403 13.3475 10.909C13.4552 11.0475 13.5236 11.2124 13.5458 11.3864C13.568 11.5605 13.543 11.7372 13.4735 11.8983C12.9155 13.2003 11.5035 14.309 10.0349 14.255L9.83486 14.2437L9.67953 14.2303L9.50753 14.2103L9.32019 14.185L9.11686 14.1517C9.08126 14.1452 9.0457 14.1386 9.01019 14.1317L8.78619 14.0837C8.74702 14.0751 8.70791 14.0662 8.66886 14.057L8.42486 13.9943L8.16819 13.921L7.90019 13.8343C6.66953 13.417 5.10753 12.597 3.50486 10.9943C1.90286 9.39232 1.08286 7.83032 0.665526 6.59966L0.57886 6.33166L0.505526 6.07499L0.44286 5.83099L0.39086 5.60032C0.37584 5.52808 0.361839 5.45563 0.34886 5.38299L0.315526 5.17966L0.28886 4.99232L0.269526 4.82032L0.256193 4.66499L0.245526 4.46499C0.191526 3.00099 1.31219 1.57899 2.60819 1.02366C2.76418 0.9563 2.93499 0.930656 3.10388 0.949239C3.27277 0.967822 3.43392 1.02999 3.57153 1.12966ZM8.99486 3.52632L9.07219 3.53499C9.55747 3.62059 10.0032 3.85762 10.3455 4.21211C10.6877 4.5666 10.909 5.02035 10.9775 5.50832C11.002 5.67711 10.9608 5.84884 10.8625 5.98819C10.7641 6.12754 10.6161 6.22391 10.4489 6.25747C10.2817 6.29103 10.108 6.25924 9.96352 6.16862C9.81904 6.07801 9.71478 5.93546 9.67219 5.77032L9.65686 5.69366C9.63004 5.50239 9.5484 5.32298 9.42181 5.17711C9.29523 5.03124 9.12911 4.92515 8.94353 4.87166L8.84019 4.84832C8.67279 4.81865 8.52305 4.72615 8.42159 4.58973C8.32014 4.45331 8.27464 4.28328 8.29439 4.11442C8.31415 3.94556 8.39767 3.79063 8.52787 3.68131C8.65808 3.57199 8.82513 3.51655 8.99486 3.52632ZM9.00019 1.49966C10.0611 1.49966 11.0785 1.92108 11.8286 2.67123C12.5788 3.42137 13.0002 4.43879 13.0002 5.49966C13 5.66958 12.9349 5.83301 12.8183 5.95657C12.7016 6.08013 12.5422 6.15448 12.3726 6.16444C12.203 6.1744 12.0359 6.11921 11.9056 6.01015C11.7753 5.90109 11.6916 5.74639 11.6715 5.57766L11.6669 5.49966C11.6671 4.8226 11.4097 4.17083 10.9469 3.67667C10.484 3.18252 9.85048 2.88302 9.17486 2.83899L9.00019 2.83299C8.82338 2.83299 8.65381 2.76275 8.52879 2.63773C8.40376 2.5127 8.33353 2.34313 8.33353 2.16632C8.33353 1.98951 8.40376 1.81994 8.52879 1.69492C8.65381 1.56989 8.82338 1.49966 9.00019 1.49966Z" fill="white"/>
</svg>
