<svg width="21" height="21" viewBox="0 0 21 21" fill="none" xmlns="http://www.w3.org/2000/svg">
<path d="M5.85705 0.736475C7.00005 1.56948 7.89005 2.70648 8.65004 3.79448L9.09205 4.43848L9.50905 5.05348C9.71763 5.35821 9.80681 5.72902 9.7596 6.09527C9.71239 6.46152 9.53209 6.7976 9.25305 7.03948L7.30205 8.48847C7.20779 8.55654 7.14144 8.6565 7.11532 8.7698C7.08921 8.88309 7.1051 9.00201 7.16005 9.10448C7.60205 9.90747 8.38805 11.1035 9.28805 12.0035C10.189 12.9035 11.441 13.7415 12.3 14.2335C12.4077 14.2939 12.5345 14.3108 12.6543 14.2807C12.7741 14.2506 12.8778 14.1757 12.944 14.0715L14.214 12.1385C14.4475 11.8283 14.792 11.6205 15.1752 11.5587C15.5585 11.4968 15.9508 11.5856 16.27 11.8065L16.933 12.2655C18.172 13.1255 19.503 14.1025 20.521 15.4055C20.6825 15.6133 20.7852 15.8606 20.8184 16.1216C20.8517 16.3827 20.8143 16.6478 20.71 16.8895C19.873 18.8425 17.755 20.5055 15.552 20.4245L15.252 20.4075L15.019 20.3875L14.761 20.3575L14.48 20.3195L14.175 20.2695C14.1216 20.2598 14.0683 20.2498 14.015 20.2395L13.679 20.1675C13.6203 20.1546 13.5616 20.1412 13.503 20.1275L13.137 20.0335L12.752 19.9235L12.35 19.7935C10.504 19.1675 8.16105 17.9375 5.75705 15.5335C3.35405 13.1305 2.12405 10.7875 1.49805 8.94147L1.36805 8.53948L1.25805 8.15448L1.16405 7.78848L1.08605 7.44248C1.06352 7.33411 1.04251 7.22543 1.02305 7.11648L0.973046 6.81148L0.933045 6.53048L0.904046 6.27248L0.884045 6.03948L0.868046 5.73948C0.787046 3.54348 2.46805 1.41048 4.41205 0.577475C4.64602 0.476442 4.90225 0.437976 5.15558 0.465851C5.40891 0.493726 5.65063 0.586984 5.85705 0.736475ZM13.992 4.33148L14.108 4.34448C14.836 4.47287 15.5045 4.82842 16.0179 5.36015C16.5314 5.89189 16.8632 6.57251 16.966 7.30447C17.0027 7.55765 16.9409 7.81525 16.7934 8.02428C16.646 8.2333 16.424 8.37786 16.1732 8.4282C15.9223 8.47854 15.6618 8.43085 15.445 8.29492C15.2283 8.159 15.0719 7.94519 15.008 7.69748L14.985 7.58248C14.9448 7.29558 14.8224 7.02647 14.6325 6.80766C14.4426 6.58885 14.1934 6.42972 13.915 6.34947L13.76 6.31448C13.5089 6.26997 13.2843 6.13121 13.1321 5.92658C12.98 5.72195 12.9117 5.46691 12.9413 5.21362C12.971 4.96033 13.0963 4.72793 13.2916 4.56396C13.4869 4.39998 13.7375 4.31682 13.992 4.33148ZM14 1.29148C15.5913 1.29148 17.1175 1.92362 18.2427 3.04883C19.3679 4.17405 20 5.70018 20 7.29148C19.9998 7.54635 19.9022 7.79151 19.7272 7.97684C19.5522 8.16218 19.3131 8.27371 19.0587 8.28865C18.8042 8.30358 18.5537 8.2208 18.3582 8.05721C18.1628 7.89362 18.0371 7.66157 18.007 7.40847L18 7.29148C18.0004 6.2759 17.6143 5.29824 16.92 4.557C16.2258 3.81577 15.2755 3.36652 14.262 3.30048L14 3.29148C13.7348 3.29148 13.4805 3.18612 13.2929 2.99858C13.1054 2.81105 13 2.55669 13 2.29148C13 2.02626 13.1054 1.7719 13.2929 1.58437C13.4805 1.39683 13.7348 1.29148 14 1.29148Z" fill="#403D39"/>
</svg>
