<svg width="60" height="61" viewBox="0 0 60 61" fill="none" xmlns="http://www.w3.org/2000/svg">
<circle cx="30" cy="30.2422" r="29.5" fill="#EAEAEA" stroke="#C4C4C4"/>
<mask id="mask0_2_1410" style="mask-type:alpha" maskUnits="userSpaceOnUse" x="0" y="0" width="60" height="61">
<circle cx="30" cy="30.2422" r="30" fill="#C4C4C4"/>
</mask>
<g mask="url(#mask0_2_1410)">
<path d="M-1.33936 -1.09717L61.6071 61.8493" stroke="#C4C4C4"/>
<path d="M-1.33936 61.8491L61.6071 -1.09731" stroke="#C4C4C4"/>
</g>
<circle cx="29.9999" cy="30.2423" r="16.8908" fill="#EAEAEA"/>
<path d="M22.1848 26.7634C22.1848 25.7609 23.0382 24.9482 24.0909 24.9482C25.1436 24.9482 25.9971 25.7609 25.9971 26.7634C25.9971 27.7658 25.1436 28.5785 24.0909 28.5785C23.0382 28.5785 22.1848 27.7658 22.1848 26.7634Z" fill="#959595"/>
<path d="M37.8151 34.0239H22.566V31.8457L24.449 30.0526C24.6724 29.84 25.0344 29.84 25.2577 30.0526L27.1407 31.8457L32.836 26.4224C33.0593 26.2097 33.4214 26.2097 33.6447 26.4224L37.8151 30.3936V34.0239Z" fill="#959595"/>
</svg>
