<svg width="50" height="51" viewBox="0 0 50 51" fill="none" xmlns="http://www.w3.org/2000/svg">
<rect y="0.242188" width="50" height="50" rx="25" fill="#3EB489"/>
<path d="M18.3761 13.7688L19.9132 13.356C21.3547 12.9696 22.8947 13.5948 23.5119 14.8164L24.7405 17.25C25.2748 18.3096 24.9776 19.5564 24.0062 20.3316L21.299 22.4893C21.4661 23.7805 21.9833 25.0513 22.849 26.3017C23.6711 27.5115 24.7738 28.5704 26.0919 29.4158L29.3434 28.5037C30.5749 28.1593 31.9177 28.5565 32.672 29.489L34.4335 31.661C35.3121 32.7458 35.1535 34.241 34.0635 35.1602L32.8963 36.1454C31.7335 37.1258 30.072 37.4822 28.5362 37.079C24.9076 36.1286 21.5747 33.3074 18.5318 28.6153C15.4846 23.9161 14.4088 19.9272 15.306 16.6536C15.6831 15.276 16.8503 14.178 18.3761 13.7688Z" fill="white"/>
</svg>
