<svg width="18" height="15" viewBox="0 0 18 15" fill="none" xmlns="http://www.w3.org/2000/svg">
<path d="M15.3 0.546875H2.7C1.98392 0.546875 1.29716 0.823437 0.790812 1.31572C0.284464 1.808 0 2.47568 0 3.17188V11.9219C0 12.6181 0.284464 13.2857 0.790812 13.778C1.29716 14.2703 1.98392 14.5469 2.7 14.5469H15.3C16.0161 14.5469 16.7028 14.2703 17.2092 13.778C17.7155 13.2857 18 12.6181 18 11.9219V3.17188C18 2.47568 17.7155 1.808 17.2092 1.31572C16.7028 0.823437 16.0161 0.546875 15.3 0.546875ZM15.3 2.29688L9.45 6.20813C9.31318 6.28492 9.15798 6.32535 9 6.32535C8.84202 6.32535 8.68682 6.28492 8.55 6.20813L2.7 2.29688H15.3Z" fill="#3EB489"/>
</svg>
