<svg width="18" height="19" viewBox="0 0 18 19" fill="none" xmlns="http://www.w3.org/2000/svg">
<path d="M5.33364 7.47024C6.21774 7.47024 7.06564 7.10553 7.69079 6.45634C8.31595 5.80715 8.66716 4.92665 8.66716 4.00856C8.66716 3.09046 8.31595 2.20997 7.69079 1.56078C7.06564 0.911587 6.21774 0.546875 5.33364 0.546875C4.44953 0.546875 3.60164 0.911587 2.97648 1.56078C2.35132 2.20997 2.00011 3.09046 2.00011 4.00856C2.00011 4.92665 2.35132 5.80715 2.97648 6.45634C3.60164 7.10553 4.44953 7.47024 5.33364 7.47024ZM14.5582 7.16146C13.9449 7.48915 13.2333 7.55741 12.5727 7.35191C11.912 7.14641 11.3537 6.68312 11.015 6.05931C10.6762 5.43549 10.5834 4.69965 10.7559 4.00626C10.9284 3.31286 11.3529 2.71583 11.9402 2.34049C12.5276 1.96515 13.2321 1.84069 13.9059 1.99323C14.5798 2.14577 15.1705 2.56346 15.5541 3.15861C15.9377 3.75376 16.0844 4.48009 15.9633 5.18514C15.8423 5.89018 15.4629 6.51911 14.9049 6.93991C14.7822 7.00361 14.6675 7.07838 14.5582 7.16146ZM8.66716 8.85491C9.19762 8.85491 9.70636 9.07374 10.0815 9.46326C10.4565 9.85277 10.6673 10.3811 10.6673 10.9319V11.0621C10.6553 11.4083 10.4166 15.0859 5.33364 15.0859C0 15.0859 0 11.0358 0 11.0358V10.9319C0 10.3811 0.210726 9.85277 0.58582 9.46326C0.960914 9.07374 1.46965 8.85491 2.00011 8.85491H8.66716ZM12.9314 14.7315L14.0795 15.1289C14.5382 14.7689 14.9195 14.3147 15.2262 13.7691C15.4889 13.3011 15.6609 12.8262 15.7409 12.3443L15.7742 12.1034L14.8182 11.1618C14.6635 11.0057 14.5535 10.8082 14.5003 10.5912C14.4472 10.3741 14.4529 10.1461 14.5168 9.93219L14.5582 9.81449L14.9929 8.75245C15.0823 8.51713 15.2482 8.32165 15.4617 8.19979C15.6752 8.07793 15.923 8.03734 16.1623 8.08504L16.2636 8.11273L16.8076 8.29274C17.3463 8.47274 17.7583 8.95184 17.8917 9.55279C18.209 10.9845 17.829 12.7265 16.7516 14.7785C15.6769 16.8279 14.4982 18.0616 13.2181 18.4756C12.9736 18.5547 12.7138 18.5682 12.463 18.5149C12.2121 18.4617 11.9783 18.3434 11.7833 18.171L11.6767 18.0685L11.2633 17.6393C11.0897 17.4534 10.9777 17.215 10.9434 16.9585C10.9091 16.7021 10.9544 16.441 11.0726 16.2131L11.1326 16.1106L11.7553 15.1607C11.8565 15.0041 11.9951 14.8775 12.1575 14.7933C12.32 14.7091 12.5007 14.6701 12.6821 14.6802C12.7287 14.683 12.7754 14.6899 12.8221 14.6996L12.9314 14.7315Z" fill="#3EB489"/>
</svg>
