<svg width="18" height="25" viewBox="0 0 18 25" fill="none" xmlns="http://www.w3.org/2000/svg">
<path d="M9 0.546875C6.61392 0.549824 4.32637 1.54414 2.63915 3.3117C0.951939 5.07926 0.0028245 7.47574 9.57508e-06 9.97545C-0.00284824 12.0182 0.634084 14.0055 1.8131 15.6326C1.8131 15.6326 2.05855 15.9712 2.09864 16.02L9 24.5469L15.9046 16.0157C15.9406 15.9703 16.1869 15.6326 16.1869 15.6326L16.1877 15.63C17.3661 14.0037 18.0028 12.0173 18 9.97545C17.9972 7.47574 17.0481 5.07926 15.3608 3.3117C13.6736 1.54414 11.3861 0.549824 9 0.546875ZM9 13.404C8.35272 13.404 7.71997 13.2029 7.18177 12.8262C6.64358 12.4495 6.2241 11.914 5.9764 11.2875C5.72869 10.661 5.66388 9.97164 5.79016 9.30657C5.91644 8.64149 6.22814 8.03057 6.68583 7.55108C7.14353 7.07159 7.72668 6.74505 8.36152 6.61275C8.99637 6.48046 9.6544 6.54836 10.2524 6.80786C10.8504 7.06736 11.3616 7.50681 11.7212 8.07063C12.0808 8.63446 12.2727 9.29734 12.2727 9.97545C12.2716 10.8844 11.9265 11.7558 11.313 12.3986C10.6994 13.0413 9.86765 13.4029 9 13.404Z" fill="#3EB489"/>
</svg>
