<svg width="42" height="31" viewBox="0 0 42 31" fill="none" xmlns="http://www.w3.org/2000/svg">
<path d="M39.2 30.7617H2.8C2.05739 30.7617 1.3452 30.4456 0.820101 29.883C0.294999 29.3204 0 28.5574 0 27.7617L0 3.76172C0 2.96607 0.294999 2.20301 0.820101 1.6404C1.3452 1.07779 2.05739 0.761719 2.8 0.761719L39.2 0.761719C39.9426 0.761719 40.6548 1.07779 41.1799 1.6404C41.705 2.20301 42 2.96607 42 3.76172V27.7617C42 28.5574 41.705 29.3204 41.1799 29.883C40.6548 30.4456 39.9426 30.7617 39.2 30.7617ZM22.2973 12.7617C21.5009 12.7617 20.7371 13.1007 20.1739 13.7041C19.6107 14.3075 19.2943 15.1259 19.2943 15.9792C19.2943 16.8326 19.6107 17.6509 20.1739 18.2543C20.7371 18.8577 21.5009 19.1967 22.2973 19.1967C23.0938 19.1967 23.8576 18.8577 24.4208 18.2543C24.9839 17.6509 25.3003 16.8326 25.3003 15.9792C25.3003 15.1259 24.9839 14.3075 24.4208 13.7041C23.8576 13.1007 23.0938 12.7617 22.2973 12.7617ZM25.0203 12.9417L27.3933 19.0842H27.979L30.394 12.9417H29.2122L27.7002 16.9617L26.2068 12.938H25.018L25.0203 12.9417ZM11.0437 17.208L10.3413 17.9355C10.7252 18.623 11.417 19.0767 12.2068 19.0767L12.2815 19.0755H12.278C12.5247 19.094 12.7723 19.0579 13.0054 18.9695C13.2386 18.8811 13.4522 18.7422 13.6331 18.5616C13.814 18.3809 13.9583 18.1623 14.0569 17.9193C14.1555 17.6763 14.2065 17.4142 14.2065 17.1492V17.1067V17.1092C14.2065 16.1592 13.8332 15.723 12.5977 15.2405C11.9443 14.9792 11.7507 14.8105 11.7507 14.488C11.7507 14.1092 12.1007 13.823 12.5638 13.823C12.7346 13.8275 12.9022 13.873 13.0543 13.9563C13.2063 14.0397 13.339 14.1585 13.4423 14.3042L13.4447 14.3067L14.014 13.5067C13.5694 13.0776 12.9919 12.8406 12.3935 12.8417H12.3702H12.3713C12.151 12.8267 11.9301 12.8595 11.7219 12.9381C11.5137 13.0168 11.3224 13.1398 11.1596 13.2996C10.9969 13.4594 10.8659 13.6528 10.7746 13.8682C10.6833 14.0836 10.6335 14.3165 10.6283 14.553V14.5555C10.6283 15.388 10.976 15.803 12.0027 16.2005C12.2943 16.3005 12.544 16.4155 12.7797 16.5542L12.7563 16.5417C12.8561 16.6055 12.9388 16.6959 12.9963 16.8041C13.0537 16.9124 13.084 17.0347 13.0842 17.1592V17.1617C13.0832 17.3863 12.9994 17.6013 12.851 17.7599C12.7026 17.9185 12.5016 18.0076 12.292 18.008L12.2348 18.0055H12.2372H12.222C11.7052 18.0055 11.2595 17.6817 11.0495 17.2142L11.046 17.2055L11.0437 17.208ZM17.5245 12.808H17.507C16.725 12.8067 15.9739 13.1354 15.4163 13.723C15.0059 14.1585 14.7255 14.7148 14.6107 15.3214C14.4959 15.928 14.552 16.5574 14.7718 17.1298C14.9916 17.7021 15.3652 18.1916 15.8451 18.536C16.325 18.8805 16.8897 19.0643 17.4673 19.0642H17.5023H17.5012C17.9993 19.0642 18.4695 18.9355 18.8848 18.7067L18.8673 18.7155V17.3442C18.5477 17.7442 18.0775 17.9967 17.5513 17.9992L17.4918 18.0005C17.2431 18.0005 16.997 17.9459 16.7687 17.8401C16.5404 17.7344 16.3347 17.5796 16.1643 17.3855C15.9939 17.1913 15.8624 16.9618 15.7779 16.7112C15.6934 16.4605 15.6577 16.194 15.673 15.928V15.933L15.6718 15.8642C15.6718 14.7767 16.4873 13.893 17.4988 13.878H17.5C18.0448 13.8817 18.5325 14.1405 18.865 14.5492L18.8673 14.5517V13.1767C18.4595 12.9353 18.0009 12.8092 17.535 12.8105H17.5257L17.5245 12.808ZM35.791 16.5255H35.9333L37.4418 18.933H38.7835L37.0218 16.4105C37.3963 16.3515 37.7359 16.1427 37.9723 15.8261C38.2088 15.5094 38.3244 15.1086 38.2958 14.7042V14.7092C38.2958 13.5867 37.5748 12.9417 36.3183 12.9417H34.7025V18.9317H35.7922V16.5255H35.791ZM30.8933 12.9417V18.9317H33.9827V17.918H31.9783V16.3005H33.9045V15.2855H31.9783V13.9567H33.9827V12.943L30.8933 12.9417ZM8.8445 12.9417V18.9317H9.933V12.9417H8.8445ZM3.73333 12.9417V18.9317H5.32817C6.05233 18.9756 6.76563 18.7277 7.32783 18.2367L7.322 18.2417C7.63696 17.9606 7.89093 17.6093 8.06623 17.2123C8.24152 16.8153 8.33393 16.3821 8.337 15.943V15.9092C8.33705 15.4972 8.2573 15.0897 8.10278 14.7124C7.94826 14.3351 7.72234 13.9963 7.43932 13.7174C7.15629 13.4384 6.82232 13.2255 6.45852 13.092C6.09473 12.9585 5.70903 12.9073 5.32583 12.9417L5.33633 12.9405L3.73333 12.9417ZM5.117 17.918H4.82417V13.9555H5.117C5.38417 13.9248 5.65437 13.9523 5.91139 14.0363C6.1684 14.1203 6.40693 14.259 6.61267 14.4442L6.60917 14.4417C6.98017 14.8105 7.21117 15.3355 7.21117 15.918V15.933V15.9317V15.9442C7.21117 16.533 6.98017 17.0642 6.61033 17.4392L6.60917 17.4405C6.18703 17.8056 5.64736 17.9772 5.10767 17.918L5.11583 17.9192L5.117 17.918ZM36.1095 15.6992H35.7922V13.8842H36.127C36.813 13.8842 37.1758 14.1917 37.1758 14.773C37.1758 15.378 36.8072 15.698 36.1095 15.698V15.6992Z" fill="#3EB489"/>
</svg>
