<svg width="8" height="9" viewBox="0 0 8 9" fill="none" xmlns="http://www.w3.org/2000/svg">
<path d="M4.00087 3.20703C4.30853 3.20703 4.60928 3.29826 4.86509 3.46919C5.1209 3.64012 5.32028 3.88306 5.43801 4.1673C5.55575 4.45154 5.58656 4.76431 5.52653 5.06606C5.46651 5.36781 5.31836 5.64498 5.10081 5.86253C4.88326 6.08008 4.60609 6.22823 4.30434 6.28825C4.00259 6.34827 3.68982 6.31747 3.40558 6.19973C3.12134 6.082 2.8784 5.88262 2.70747 5.62681C2.53654 5.371 2.44531 5.07025 2.44531 4.76259C2.44531 4.35003 2.6092 3.95437 2.90092 3.66264C3.19265 3.37092 3.58831 3.20703 4.00087 3.20703Z" fill="#403D39"/>
<path d="M4.00087 8.31814C3.29765 8.31814 2.61022 8.10961 2.02551 7.71892C1.4408 7.32824 0.985076 6.77293 0.715965 6.12324C0.446853 5.47355 0.376441 4.75864 0.513633 4.06893C0.650825 3.37922 0.989459 2.74568 1.48671 2.24843C1.98397 1.75118 2.61751 1.41254 3.30722 1.27535C3.99693 1.13816 4.71183 1.20857 5.36152 1.47768C6.01121 1.74679 6.56652 2.20252 6.95721 2.78723C7.3479 3.37194 7.55643 4.05937 7.55643 4.76259C7.55643 5.70558 7.18182 6.60995 6.51503 7.27675C5.84823 7.94354 4.94386 8.31814 4.00087 8.31814ZM4.00087 1.65148C3.38555 1.65148 2.78405 1.83394 2.27243 2.17579C1.76081 2.51765 1.36205 3.00354 1.12658 3.57202C0.891105 4.1405 0.829495 4.76604 0.949538 5.36954C1.06958 5.97303 1.36589 6.52738 1.80098 6.96248C2.23608 7.39757 2.79043 7.69388 3.39392 7.81392C3.99742 7.93396 4.62296 7.87235 5.19144 7.63688C5.75992 7.40141 6.24581 7.00265 6.58766 6.49103C6.92952 5.97941 7.11198 5.37791 7.11198 4.76259C7.11198 3.93747 6.7842 3.14615 6.20076 2.5627C5.61731 1.97925 4.82599 1.65148 4.00087 1.65148Z" fill="#403D39"/>
</svg>
