<svg width="42" height="31" viewBox="0 0 42 31" fill="none" xmlns="http://www.w3.org/2000/svg">
<path d="M19.776 27.9619C19.8765 28.0615 19.9854 28.1611 20.0922 28.2583C17.9697 29.8928 15.4782 30.7634 12.9306 30.7605C11.2325 30.7621 9.55078 30.3753 7.98162 29.6223C6.41245 28.8693 4.98663 27.7648 3.7857 26.372C2.58476 24.9793 1.63227 23.3255 0.982684 21.5053C0.333102 19.6851 -0.000824688 17.7343 1.52945e-06 15.7642C-0.000219377 13.051 0.633881 10.3884 1.83478 8.06017C3.03567 5.7319 4.75839 3.82508 6.81949 2.54277C8.88058 1.26046 11.2029 0.650666 13.539 0.778338C15.8752 0.906011 18.1378 1.76636 20.0859 3.26778C19.9812 3.37224 19.8765 3.46698 19.7969 3.57387C18.2875 5.08592 17.0764 6.95733 16.2461 9.06084C15.4157 11.1644 14.9856 13.4506 14.9848 15.7642C14.9848 20.4407 16.7292 24.8864 19.776 27.9619ZM28.908 0.765568C26.3627 0.759826 23.8732 1.63067 21.7548 3.26778C21.8574 3.37224 21.9621 3.46698 22.0417 3.57387C25.1032 6.64211 26.8559 11.0902 26.8559 15.7642C26.8559 20.4383 25.1074 24.8815 22.0647 27.9619C21.9621 28.0615 21.8532 28.1611 21.7485 28.2583C23.8693 29.8934 26.3596 30.764 28.9059 30.7605C30.6174 30.7859 32.3162 30.4168 33.9038 29.6746C35.4914 28.9324 36.9361 27.8319 38.1542 26.4368C39.3723 25.0418 40.3395 23.38 40.9997 21.548C41.6598 19.7159 41.9999 17.75 42 15.7643C42.0001 13.7785 41.6604 11.8126 41.0005 9.98036C40.3406 8.14816 39.3736 6.48623 38.1557 5.09096C36.9378 3.6957 35.4932 2.59488 33.9058 1.85238C32.3183 1.10987 30.6195 0.740458 28.908 0.765568ZM20.9193 3.982C19.3798 5.38241 18.1354 7.17121 17.2806 9.21267C16.4258 11.2541 15.983 13.4947 15.9858 15.7642C15.9817 18.0351 16.4239 20.2772 17.2788 22.3201C18.1337 24.3629 19.3787 26.1528 20.9193 27.5538C22.4595 26.1522 23.7043 24.3623 24.5595 22.3196C25.4146 20.2769 25.8576 18.0351 25.8549 15.7642C25.8578 13.4944 25.4148 11.2536 24.5596 9.21209C23.7044 7.17056 22.4594 5.38192 20.9193 3.982Z" fill="#3EB489"/>
</svg>
