<svg width="34" height="35" viewBox="0 0 34 35" fill="none" xmlns="http://www.w3.org/2000/svg">
<rect y="0.484375" width="34" height="34" rx="17" fill="#3EB489"/>
<path d="M17.5652 15.6844L16.3478 14.4244L17.7174 12.9844H14.087V11.1844H17.7174L16.3261 9.74438L17.5652 8.48438L21.0435 12.0844L17.5652 15.6844ZM13.2174 26.4844C12.7391 26.4844 12.3299 26.3083 11.9896 25.9561C11.6487 25.6033 11.4783 25.1794 11.4783 24.6844C11.4783 24.1894 11.6487 23.7655 11.9896 23.4127C12.3299 23.0605 12.7391 22.8844 13.2174 22.8844C13.6957 22.8844 14.1049 23.0605 14.4452 23.4127C14.7861 23.7655 14.9565 24.1894 14.9565 24.6844C14.9565 25.1794 14.7861 25.6033 14.4452 25.9561C14.1049 26.3083 13.6957 26.4844 13.2174 26.4844ZM21.913 26.4844C21.4348 26.4844 21.0255 26.3083 20.6852 25.9561C20.3443 25.6033 20.1739 25.1794 20.1739 24.6844C20.1739 24.1894 20.3443 23.7655 20.6852 23.4127C21.0255 23.0605 21.4348 22.8844 21.913 22.8844C22.3913 22.8844 22.8009 23.0605 23.1417 23.4127C23.482 23.7655 23.6522 24.1894 23.6522 24.6844C23.6522 25.1794 23.482 25.6033 23.1417 25.9561C22.8009 26.3083 22.3913 26.4844 21.913 26.4844ZM8 10.2844V8.48438H10.8478L14.5435 16.5844H20.6304L24.0217 10.2844H26L22.1739 17.4394C22.0145 17.7394 21.8006 17.9719 21.5322 18.1369C21.2643 18.3019 20.971 18.3844 20.6522 18.3844H14.1739L13.2174 20.1844H23.6522V21.9844H13.2174C12.5652 21.9844 12.0687 21.6919 11.7278 21.1069C11.3875 20.5219 11.3768 19.9294 11.6957 19.3294L12.8696 17.1244L9.73913 10.2844H8Z" fill="white"/>
</svg>
