<svg width="34" height="35" viewBox="0 0 34 35" fill="none" xmlns="http://www.w3.org/2000/svg">
<rect y="0.484375" width="34" height="34" rx="17" fill="#3EB489"/>
<path d="M16.3 22.4844V21.151H21.9V16.4177C21.9 15.7733 21.7717 15.1677 21.515 14.601C21.2583 14.0344 20.9083 13.5399 20.465 13.1177C20.0217 12.6955 19.5025 12.3622 18.9075 12.1177C18.3125 11.8733 17.6767 11.751 17 11.751C16.3233 11.751 15.6875 11.8733 15.0925 12.1177C14.4975 12.3622 13.9783 12.6955 13.535 13.1177C13.0917 13.5399 12.7417 14.0344 12.485 14.601C12.2283 15.1677 12.1 15.7733 12.1 16.4177V20.4844H11.4C11.015 20.4844 10.6855 20.3539 10.4116 20.093C10.1372 19.8317 10 19.5177 10 19.151V17.8177C10 17.5622 10.0642 17.337 10.1925 17.1424C10.3208 16.9482 10.49 16.7899 10.7 16.6677L10.7525 15.7844C10.8575 14.9733 11.0997 14.2399 11.4791 13.5844C11.858 12.9288 12.3305 12.3733 12.8966 11.9177C13.4622 11.4622 14.098 11.1093 14.8041 10.859C15.5097 10.6093 16.2417 10.4844 17 10.4844C17.77 10.4844 18.508 10.6093 19.2141 10.859C19.9197 11.1093 20.5525 11.4648 21.1125 11.9257C21.6725 12.387 22.1422 12.9426 22.5216 13.5924C22.9005 14.2426 23.1425 14.9677 23.2475 15.7677L23.3 16.6344C23.51 16.7344 23.6792 16.8815 23.8075 17.0757C23.9358 17.2704 24 17.4844 24 17.7177V19.251C24 19.4955 23.9358 19.7122 23.8075 19.901C23.6792 20.0899 23.51 20.2344 23.3 20.3344V21.151C23.3 21.5177 23.163 21.8317 22.8891 22.093C22.6147 22.3539 22.285 22.4844 21.9 22.4844H16.3ZM14.9 17.8177C14.7017 17.8177 14.5355 17.7537 14.4016 17.6257C14.2672 17.4982 14.2 17.3399 14.2 17.151C14.2 16.9622 14.2672 16.8037 14.4016 16.6757C14.5355 16.5482 14.7017 16.4844 14.9 16.4844C15.0983 16.4844 15.2647 16.5482 15.3991 16.6757C15.533 16.8037 15.6 16.9622 15.6 17.151C15.6 17.3399 15.533 17.4982 15.3991 17.6257C15.2647 17.7537 15.0983 17.8177 14.9 17.8177ZM19.1 17.8177C18.9017 17.8177 18.7355 17.7537 18.6016 17.6257C18.4672 17.4982 18.4 17.3399 18.4 17.151C18.4 16.9622 18.4672 16.8037 18.6016 16.6757C18.7355 16.5482 18.9017 16.4844 19.1 16.4844C19.2983 16.4844 19.4647 16.5482 19.5991 16.6757C19.733 16.8037 19.8 16.9622 19.8 17.151C19.8 17.3399 19.733 17.4982 19.5991 17.6257C19.4647 17.7537 19.2983 17.8177 19.1 17.8177ZM12.8175 16.7844C12.7708 16.1288 12.8672 15.5344 13.1066 15.001C13.3455 14.4677 13.6661 14.0148 14.0684 13.6424C14.4711 13.2704 14.935 12.9844 15.46 12.7844C15.985 12.5844 16.51 12.4844 17.035 12.4844C18.0967 12.4844 19.0155 12.8039 19.7916 13.443C20.5672 14.0817 21.0367 14.8788 21.2 15.8344C20.1033 15.8233 19.1117 15.5426 18.225 14.9924C17.3383 14.4426 16.6675 13.7288 16.2125 12.851C16.0258 13.751 15.6322 14.5482 15.0316 15.2424C14.4305 15.937 13.6925 16.451 12.8175 16.7844Z" fill="white"/>
</svg>
