<svg width="141" height="37" viewBox="0 0 141 37" fill="none" xmlns="http://www.w3.org/2000/svg">
<path d="M28.4444 2.76172C29.3874 2.76172 30.2918 3.13632 30.9586 3.80312C31.6254 4.46991 32 5.37428 32 6.31727V31.2062C32 32.1492 31.6254 33.0535 30.9586 33.7203C30.2918 34.3871 29.3874 34.7617 28.4444 34.7617H3.55556C2.61256 34.7617 1.70819 34.3871 1.0414 33.7203C0.374602 33.0535 0 32.1492 0 31.2062V6.31727C0 5.37428 0.374602 4.46991 1.0414 3.80312C1.70819 3.13632 2.61256 2.76172 3.55556 2.76172H28.4444ZM27.5556 30.3173V20.8951C27.5556 19.358 26.945 17.8839 25.8581 16.797C24.7712 15.7101 23.2971 15.0995 21.76 15.0995C20.2489 15.0995 18.4889 16.0239 17.6356 17.4106V15.4373H12.6756V30.3173H17.6356V21.5528C17.6356 20.1839 18.7378 19.0639 20.1067 19.0639C20.7668 19.0639 21.3998 19.3262 21.8666 19.7929C22.3333 20.2597 22.5956 20.8927 22.5956 21.5528V30.3173H27.5556ZM6.89778 12.6462C7.68989 12.6462 8.44956 12.3315 9.00967 11.7714C9.56978 11.2113 9.88445 10.4516 9.88445 9.6595C9.88445 8.00616 8.55111 6.65505 6.89778 6.65505C6.10095 6.65505 5.33676 6.97159 4.77331 7.53503C4.20987 8.09848 3.89333 8.86267 3.89333 9.6595C3.89333 11.3128 5.24444 12.6462 6.89778 12.6462ZM9.36889 30.3173V15.4373H4.44444V30.3173H9.36889Z" fill="white"/>
<path d="M46.536 24.5537H52.176V26.7617H43.8V10.0817H46.536V24.5537ZM55.8561 11.7857C55.3601 11.7857 54.9441 11.6177 54.6081 11.2817C54.2721 10.9457 54.1041 10.5297 54.1041 10.0337C54.1041 9.53772 54.2721 9.12172 54.6081 8.78572C54.9441 8.44972 55.3601 8.28172 55.8561 8.28172C56.3361 8.28172 56.7441 8.44972 57.0801 8.78572C57.4161 9.12172 57.5841 9.53772 57.5841 10.0337C57.5841 10.5297 57.4161 10.9457 57.0801 11.2817C56.7441 11.6177 56.3361 11.7857 55.8561 11.7857ZM57.2001 13.5377V26.7617H54.4641V13.5377H57.2001ZM67.4642 13.3217C68.5042 13.3217 69.4322 13.5377 70.2482 13.9697C71.0802 14.4017 71.7282 15.0417 72.1922 15.8897C72.6562 16.7377 72.8882 17.7617 72.8882 18.9617V26.7617H70.1762V19.3697C70.1762 18.1857 69.8802 17.2817 69.2882 16.6577C68.6962 16.0177 67.8882 15.6977 66.8642 15.6977C65.8402 15.6977 65.0242 16.0177 64.4162 16.6577C63.8242 17.2817 63.5282 18.1857 63.5282 19.3697V26.7617H60.7922V13.5377H63.5282V15.0497C63.9762 14.5057 64.5442 14.0817 65.2322 13.7777C65.9362 13.4737 66.6802 13.3217 67.4642 13.3217ZM81.6101 20.1617L87.7061 26.7617H84.0101L79.1141 21.0737V26.7617H76.3781V9.00172H79.1141V19.3217L83.9141 13.5377H87.7061L81.6101 20.1617ZM101.787 19.8257C101.787 20.3217 101.755 20.7697 101.691 21.1697H91.5872C91.6672 22.2257 92.0592 23.0737 92.7632 23.7137C93.4672 24.3537 94.3312 24.6737 95.3552 24.6737C96.8272 24.6737 97.8672 24.0577 98.4752 22.8257H101.427C101.027 24.0417 100.299 25.0417 99.2432 25.8257C98.2032 26.5937 96.9072 26.9777 95.3552 26.9777C94.0912 26.9777 92.9552 26.6977 91.9472 26.1377C90.9552 25.5617 90.1712 24.7617 89.5952 23.7377C89.0352 22.6977 88.7552 21.4977 88.7552 20.1377C88.7552 18.7777 89.0272 17.5857 89.5712 16.5617C90.1312 15.5217 90.9072 14.7217 91.8992 14.1617C92.9072 13.6017 94.0592 13.3217 95.3552 13.3217C96.6032 13.3217 97.7152 13.5937 98.6912 14.1377C99.6672 14.6817 100.427 15.4497 100.971 16.4417C101.515 17.4177 101.787 18.5457 101.787 19.8257ZM98.9312 18.9617C98.9152 17.9537 98.5552 17.1457 97.8512 16.5377C97.1472 15.9297 96.2752 15.6257 95.2352 15.6257C94.2912 15.6257 93.4832 15.9297 92.8112 16.5377C92.1392 17.1297 91.7392 17.9377 91.6112 18.9617H98.9312ZM103.568 20.0897C103.568 18.7617 103.84 17.5857 104.384 16.5617C104.944 15.5377 105.696 14.7457 106.64 14.1857C107.6 13.6097 108.664 13.3217 109.832 13.3217C110.696 13.3217 111.544 13.5137 112.376 13.8977C113.224 14.2657 113.896 14.7617 114.392 15.3857V9.00172H117.152V26.7617H114.392V24.7697C113.944 25.4097 113.32 25.9377 112.52 26.3537C111.736 26.7697 110.832 26.9777 109.808 26.9777C108.656 26.9777 107.6 26.6897 106.64 26.1137C105.696 25.5217 104.944 24.7057 104.384 23.6657C103.84 22.6097 103.568 21.4177 103.568 20.0897ZM114.392 20.1377C114.392 19.2257 114.2 18.4337 113.816 17.7617C113.448 17.0897 112.96 16.5777 112.352 16.2257C111.744 15.8737 111.088 15.6977 110.384 15.6977C109.68 15.6977 109.024 15.8737 108.416 16.2257C107.808 16.5617 107.312 17.0657 106.928 17.7377C106.56 18.3937 106.376 19.1777 106.376 20.0897C106.376 21.0017 106.56 21.8017 106.928 22.4897C107.312 23.1777 107.808 23.7057 108.416 24.0737C109.04 24.4257 109.696 24.6017 110.384 24.6017C111.088 24.6017 111.744 24.4257 112.352 24.0737C112.96 23.7217 113.448 23.2097 113.816 22.5377C114.2 21.8497 114.392 21.0497 114.392 20.1377ZM123.481 10.0817V26.7617H120.745V10.0817H123.481ZM133.745 13.3217C134.785 13.3217 135.713 13.5377 136.529 13.9697C137.361 14.4017 138.009 15.0417 138.473 15.8897C138.937 16.7377 139.169 17.7617 139.169 18.9617V26.7617H136.457V19.3697C136.457 18.1857 136.161 17.2817 135.569 16.6577C134.977 16.0177 134.169 15.6977 133.145 15.6977C132.121 15.6977 131.305 16.0177 130.697 16.6577C130.105 17.2817 129.809 18.1857 129.809 19.3697V26.7617H127.073V13.5377H129.809V15.0497C130.257 14.5057 130.825 14.0817 131.513 13.7777C132.217 13.4737 132.961 13.3217 133.745 13.3217Z" fill="white"/>
</svg>
