<svg width="34" height="35" viewBox="0 0 34 35" fill="none" xmlns="http://www.w3.org/2000/svg">
<circle cx="17" cy="17.4844" r="17" fill="#3EB489"/>
<path d="M24.875 9.48438H9.125C8.82663 9.48438 8.54048 9.60388 8.3295 9.81659C8.11853 10.0293 8 10.3178 8 10.6186V21.9611C8 22.2619 8.11853 22.5504 8.3295 22.7631C8.54048 22.9759 8.82663 23.0954 9.125 23.0954H17.5625L17.8831 22.6984L18.4062 22.0518L18.3556 21.9611H9.125V10.6186H24.875V15.4732C25.3023 15.7521 25.6822 16.0987 26 16.4997V10.6186C26 10.3178 25.8815 10.0293 25.6705 9.81659C25.4595 9.60388 25.1734 9.48438 24.875 9.48438Z" fill="white"/>
<path d="M10.8125 12.8887H20.375V13.7961H10.8125V12.8887Z" fill="white"/>
<path d="M10.8125 15.1543H17V16.0617H10.8125V15.1543Z" fill="white"/>
<path d="M10.8125 19.127H16.4375V20.0344H10.8125V19.127Z" fill="white"/>
<path d="M22.3212 15.8556C21.6014 15.8498 20.8966 16.0631 20.299 16.4676C19.7013 16.8721 19.2385 17.449 18.9712 18.1228C18.7039 18.7967 18.6444 19.5361 18.8005 20.2446C18.9566 20.9531 19.3211 21.5976 19.8462 22.0939L18.755 23.438L19.2612 25.4854L21.32 22.956C21.9717 23.1503 22.6652 23.1503 23.3169 22.956L25.3756 25.4854L25.8819 23.438L24.7906 22.0939C25.3158 21.5976 25.6803 20.9531 25.8364 20.2446C25.9925 19.5361 25.933 18.7967 25.6656 18.1228C25.3983 17.449 24.9356 16.8721 24.3379 16.4676C23.7402 16.0631 23.0354 15.8498 22.3156 15.8556H22.3212ZM22.3212 21.9125C21.8432 21.9058 21.3779 21.7567 20.9836 21.4841C20.5894 21.2115 20.2839 20.8274 20.1056 20.3802C19.9273 19.933 19.8841 19.4427 19.9814 18.9708C20.0787 18.4989 20.3122 18.0666 20.6526 17.7281C20.9929 17.3897 21.425 17.1602 21.8943 17.0686C22.3636 16.977 22.8494 17.0274 23.2904 17.2134C23.7314 17.3993 24.1081 17.7126 24.373 18.1138C24.6379 18.515 24.7793 18.9862 24.7794 19.4682C24.7734 20.1205 24.5115 20.7439 24.0508 21.2019C23.5901 21.66 22.9683 21.9155 22.3212 21.9125Z" fill="white"/>
</svg>
