<svg width="1920" height="541" viewBox="0 0 1920 541" fill="none" xmlns="http://www.w3.org/2000/svg">
<rect y="0.242188" width="1920" height="540" fill="url(#paint0_linear_440_66949)"/>
<path fill-rule="evenodd" clip-rule="evenodd" d="M340.894 35.0222C386.026 43.2597 684.599 46.869 726.95 60.5615C776.182 76.4784 656.727 109.965 685.953 141.985C714.501 173.262 563.946 186.411 547.581 221.728C623.957 266.103 526.099 268.494 516.283 292.741C502.99 325.577 506.482 361.641 479.449 390.025C444.444 426.781 402.565 467.783 340.894 476.9C279.168 486.024 123.23 501.702 70.9952 476.9C20.6686 453.004 78.4524 377.136 50.8274 339.172C24.1659 302.531 -17.0693 259.067 7.54258 221.728C34.8308 180.329 28.2203 137.025 70.9952 102.67C101.659 78.0422 175.386 83.7805 208.208 60.5615C241.057 37.3237 295.739 26.7804 340.894 35.0222Z" fill="url(#paint1_linear_440_66949)"/>
<path fill-rule="evenodd" clip-rule="evenodd" d="M1620.67 21.4675C1685.94 15.6688 1803.61 -9.90184 1852.68 21.8491C1905.37 55.9448 1893.11 169.627 1900.83 220.54C1909.39 276.973 1919.48 434.929 1871.17 479.599C1815.93 530.676 1910.06 382.079 1822.69 368.014C1735.08 353.911 1350.05 360.632 1285.93 315.09C1220.23 268.419 1255.24 287.241 1255.95 220.54C1256.68 153.654 1406.54 108.214 1482.61 70.4042C1533.32 45.1998 1559.65 26.8883 1620.67 21.4675Z" fill="url(#paint2_linear_440_66949)"/>
<defs>
<linearGradient id="paint0_linear_440_66949" x1="0" y1="540.242" x2="1778.06" y2="-300.085" gradientUnits="userSpaceOnUse">
<stop stop-color="#0F2B95"/>
<stop offset="1" stop-color="#468BFD"/>
</linearGradient>
<linearGradient id="paint1_linear_440_66949" x1="79.9945" y1="102.716" x2="604.456" y2="79.9242" gradientUnits="userSpaceOnUse">
<stop stop-color="#13319C"/>
<stop offset="1" stop-color="#1739A4" stop-opacity="0"/>
</linearGradient>
<linearGradient id="paint2_linear_440_66949" x1="1579.25" y1="38.5242" x2="1579.25" y2="481.552" gradientUnits="userSpaceOnUse">
<stop stop-color="#468BFD"/>
<stop offset="1" stop-color="#468BFD" stop-opacity="0.09"/>
</linearGradient>
</defs>
</svg>
