<svg width="100" height="101" viewBox="0 0 100 101" fill="none" xmlns="http://www.w3.org/2000/svg">
<path d="M10.36 70.1517H17V41.7653H10.36M13.68 38.0557C14.1594 38.0664 14.6362 37.9805 15.0822 37.8029C15.5283 37.6254 15.9346 37.3598 16.2775 37.0217C16.6203 36.6837 16.8926 36.28 17.0785 35.8343C17.2644 35.3887 17.3601 34.9101 17.36 34.4267C17.36 32.4106 15.76 30.7978 13.68 30.7978C13.2006 30.787 12.7238 30.873 12.2778 31.0505C11.8317 31.2281 11.4254 31.4937 11.0825 31.8317C10.7397 32.1698 10.4674 32.5735 10.2815 33.0191C10.0956 33.4647 9.99988 33.9433 10 34.4267C10 36.4428 11.6 38.0557 13.68 38.0557ZM39 30.8784C27.84 30.8784 20.8 38.5395 20.8 50.7973C20.8 63.1358 27.84 70.7969 39 70.7969C50.16 70.7969 57.2 63.1358 57.2 50.7973C57.2 38.5395 50.16 30.8784 39 30.8784ZM39 36.6847C45.84 36.6847 50.2 42.2088 50.2 50.7973C50.2 59.4665 45.84 64.9099 39 64.9099C32.16 64.9099 27.84 59.4665 27.84 50.7973C27.84 42.2088 32.16 36.6847 39 36.6847ZM60 59.3052C60.28 66.4018 66 70.7969 74.88 70.7969C84.16 70.7969 90 66.2002 90 58.8617C90 53.0957 86.72 49.8699 78.92 48.0555L74.52 47.0474C69.8 45.9184 67.88 44.4265 67.88 41.8459C67.88 38.7008 70.8 36.4831 75.12 36.4831C79.52 36.4831 82.52 38.7008 82.84 42.2895H89.36C89.2 35.4751 83.64 30.8784 75.16 30.8784C66.84 30.8784 60.92 35.5154 60.92 42.3701C60.92 47.8942 64.24 51.3215 71.32 52.9344L76.28 54.1037C81.12 55.273 83.08 56.8456 83.08 59.6681C83.08 62.8938 79.88 65.1922 75.24 65.1922C70.6 65.1922 67.04 62.8938 66.64 59.3052H60Z" fill="white"/>
<rect x="1.5" y="2.29688" width="97" height="97" stroke="white" stroke-width="3"/>
</svg>
