<svg width="42" height="31" viewBox="0 0 42 31" fill="none" xmlns="http://www.w3.org/2000/svg">
<path d="M39.2 30.7617H2.8C2.05739 30.7617 1.3452 30.4456 0.820101 29.883C0.294999 29.3204 0 28.5574 0 27.7617L0 3.76172C0 2.96607 0.294999 2.20301 0.820101 1.6404C1.3452 1.07779 2.05739 0.761719 2.8 0.761719L39.2 0.761719C39.9426 0.761719 40.6548 1.07779 41.1799 1.6404C41.705 2.20301 42 2.96607 42 3.76172V27.7617C42 28.5574 41.705 29.3204 41.1799 29.883C40.6548 30.4456 39.9426 30.7617 39.2 30.7617ZM17.052 18.4555V27.013H22.1305C23.0483 27.012 23.9282 26.6209 24.5771 25.9256C25.2261 25.2303 25.5911 24.2875 25.592 23.3042V4.76047H20.5147C19.5967 4.76113 18.7165 5.15205 18.0673 5.84739C17.4181 6.54274 17.0529 7.48569 17.052 8.46922V13.3192C18.266 12.4072 19.7411 11.9828 21.2182 12.1205L21.1948 12.1192C21.4165 12.1192 21.6545 12.1255 21.9007 12.1367C22.8993 12.2067 23.8268 12.3655 24.724 12.608L24.6167 12.583V14.153C23.8121 13.6898 22.9258 13.4125 22.015 13.3392L21.9928 13.338C21.8759 13.3295 21.7588 13.3253 21.6417 13.3255C19.992 13.3255 19.0073 14.283 19.0073 15.8855C18.9902 16.2469 19.0476 16.608 19.1755 16.9429C19.3035 17.2779 19.4988 17.5785 19.7476 17.8233C19.9964 18.0681 20.2925 18.2511 20.6148 18.3593C20.9372 18.4675 21.2778 18.4982 21.6125 18.4492L21.6008 18.4505C21.7245 18.4505 21.8563 18.4442 21.9928 18.433C22.9238 18.35 23.8294 18.066 24.6552 17.598L24.6178 17.618V19.188H24.6073C23.7346 19.4233 22.8433 19.5714 21.945 19.6305L21.9007 19.633C21.6545 19.6455 21.4177 19.6505 21.1948 19.6505C19.7177 19.7814 18.2445 19.3527 17.0322 18.4392L17.052 18.4542V18.4555ZM26.5988 19.4555V26.9955H31.6773C32.5951 26.9945 33.475 26.6034 34.124 25.9081C34.7729 25.2128 35.1379 24.27 35.1388 23.2867V4.76172H30.079C29.1613 4.76271 28.2816 5.15381 27.6328 5.84916C26.984 6.54451 26.6193 7.48727 26.6187 8.47047V12.3217H31.5058L31.5677 12.3205C31.6668 12.3205 31.7637 12.328 31.8582 12.3442L31.8477 12.343C33.033 12.408 33.768 13.0705 33.768 14.0755C33.7548 14.5188 33.5845 14.94 33.2917 15.2535C32.9989 15.567 32.6056 15.7492 32.1918 15.763H32.1895V15.8042C33.3725 15.8892 34.167 16.6105 34.167 17.5967C34.167 18.6892 33.2593 19.4505 31.962 19.4505L26.5988 19.4555ZM7.46667 19.168V26.968H12.5452C13.4621 26.9666 14.3412 26.576 14.9898 25.8815C15.6384 25.187 16.0036 24.2454 16.0055 23.263V4.76297H10.9468C10.0292 4.76396 9.14939 5.15506 8.50062 5.85041C7.85185 6.54576 7.48712 7.48852 7.4865 8.47172V17.6205C8.35217 18.1167 9.3765 18.423 10.4638 18.4567H10.4732C10.7052 18.4864 10.9404 18.4631 11.1633 18.3882C11.3863 18.3134 11.5919 18.1888 11.7666 18.0226C11.9414 17.8564 12.0812 17.6524 12.177 17.4241C12.2728 17.1958 12.3223 16.9483 12.3223 16.698L12.3212 16.6192V16.623V12.303H15.288V16.603C15.288 18.618 13.8542 19.6405 11.0285 19.6405C9.76383 19.6405 8.5365 19.4692 7.36633 19.1467L7.46783 19.1705L7.46667 19.168ZM28.3103 16.3155V18.2717H30.3065C30.3357 18.2717 30.3835 18.2667 30.4302 18.2617C30.4768 18.2567 30.5235 18.2517 30.5538 18.2517C30.7528 18.206 30.9311 18.0887 31.0591 17.9192C31.1871 17.7498 31.2571 17.5385 31.2573 17.3205V17.2917V17.293C31.2568 17.0732 31.1879 16.8598 31.0616 16.6867C30.9352 16.5135 30.7586 16.3903 30.5597 16.3367L30.5538 16.3355C30.4878 16.3206 30.4206 16.3131 30.3532 16.313L30.3053 16.3142H30.3077L28.3103 16.3155ZM28.3103 13.423V15.2155H30.1187L30.1583 15.2167C30.2093 15.2166 30.26 15.2086 30.3088 15.193L30.3053 15.1942C30.4991 15.1605 30.6754 15.0542 30.8028 14.8942C30.9302 14.7343 31.0004 14.531 31.001 14.3207C31.0015 14.1104 30.9324 13.9067 30.8058 13.746C30.6793 13.5852 30.5036 13.4778 30.31 13.443L30.3053 13.4417C30.278 13.4408 30.2507 13.4379 30.2237 13.433H30.2283C30.1916 13.427 30.1546 13.4233 30.1175 13.4217H30.1163L28.3103 13.423Z" fill="#3EB489"/>
</svg>
