<svg width="60" height="61" viewBox="0 0 60 61" fill="none" xmlns="http://www.w3.org/2000/svg">
<path d="M30 0.285156C24.0666 0.285156 18.2664 2.04463 13.3329 5.34107C8.39943 8.63751 4.55426 13.3229 2.28363 18.8046C0.0129986 24.2864 -0.581101 30.3184 0.576455 36.1379C1.73401 41.9573 4.59123 47.3028 8.78681 51.4983C12.9824 55.6939 18.3279 58.5511 24.1473 59.7087C29.9667 60.8663 35.9987 60.2722 41.4805 58.0015C46.9623 55.7309 51.6476 51.8857 54.9441 46.9523C58.2405 42.0188 60 36.2186 60 30.2852C59.9848 22.3333 56.8191 14.7116 51.1964 9.08879C45.5736 3.46601 37.9518 0.300404 30 0.285156ZM41.5385 32.5928H24.0289L29.8846 38.4486C30.3162 38.8812 30.5586 39.4673 30.5586 40.0784C30.5586 40.6895 30.3162 41.2756 29.8846 41.7082C29.6698 41.9244 29.4133 42.0947 29.1306 42.2087C28.848 42.3228 28.5451 42.3782 28.2404 42.3717C27.94 42.3777 27.6417 42.3219 27.3638 42.2077C27.0859 42.0936 26.8344 41.9236 26.625 41.7082L16.8462 31.9294C16.6287 31.7132 16.4527 31.459 16.3269 31.1794C16.0959 30.6056 16.0959 29.9647 16.3269 29.3909C16.4527 29.1113 16.6287 28.8571 16.8462 28.6409L26.625 18.8621C27.064 18.4643 27.6391 18.2506 28.2313 18.2652C28.8235 18.2798 29.3874 18.5215 29.8063 18.9404C30.2252 19.3593 30.4669 19.9232 30.4815 20.5154C30.4961 21.1076 30.2824 21.6827 29.8846 22.1217L24.0289 27.9775H41.5385C42.1505 27.9775 42.7375 28.2206 43.1703 28.6534C43.603 29.0861 43.8462 29.6731 43.8462 30.2852C43.8462 30.8972 43.603 31.4842 43.1703 31.9169C42.7375 32.3497 42.1505 32.5928 41.5385 32.5928Z" fill="white"/>
</svg>
