<svg width="32" height="33" viewBox="0 0 32 33" fill="none" xmlns="http://www.w3.org/2000/svg">
<path d="M28.4444 0.761719C29.3874 0.761719 30.2918 1.13632 30.9586 1.80312C31.6254 2.46991 32 3.37428 32 4.31727V29.2062C32 30.1492 31.6254 31.0535 30.9586 31.7203C30.2918 32.3871 29.3874 32.7617 28.4444 32.7617H3.55556C2.61256 32.7617 1.70819 32.3871 1.0414 31.7203C0.374602 31.0535 0 30.1492 0 29.2062V4.31727C0 3.37428 0.374602 2.46991 1.0414 1.80312C1.70819 1.13632 2.61256 0.761719 3.55556 0.761719H28.4444ZM27.5556 28.3173V18.8951C27.5556 17.358 26.945 15.8839 25.8581 14.797C24.7712 13.7101 23.2971 13.0995 21.76 13.0995C20.2489 13.0995 18.4889 14.0239 17.6356 15.4106V13.4373H12.6756V28.3173H17.6356V19.5528C17.6356 18.1839 18.7378 17.0639 20.1067 17.0639C20.7668 17.0639 21.3998 17.3262 21.8666 17.7929C22.3333 18.2597 22.5956 18.8927 22.5956 19.5528V28.3173H27.5556ZM6.89778 10.6462C7.68989 10.6462 8.44956 10.3315 9.00967 9.77139C9.56978 9.21128 9.88445 8.45161 9.88445 7.6595C9.88445 6.00616 8.55111 4.65505 6.89778 4.65505C6.10095 4.65505 5.33676 4.97159 4.77331 5.53503C4.20987 6.09848 3.89333 6.86267 3.89333 7.6595C3.89333 9.31283 5.24444 10.6462 6.89778 10.6462ZM9.36889 28.3173V13.4373H4.44444V28.3173H9.36889Z" fill="white"/>
</svg>
