<svg width="41" height="60" viewBox="0 0 41 60" fill="none" xmlns="http://www.w3.org/2000/svg">
<path d="M20.5 0C9.44286 0 0.5 9.39 0.5 21C0.5 36.75 20.5 60 20.5 60C20.5 60 40.5 36.75 40.5 21C40.5 9.39 31.5571 0 20.5 0ZM20.5 28.5C18.6056 28.5 16.7888 27.7098 15.4492 26.3033C14.1097 24.8968 13.3571 22.9891 13.3571 21C13.3571 19.0109 14.1097 17.1032 15.4492 15.6967C16.7888 14.2902 18.6056 13.5 20.5 13.5C22.3944 13.5 24.2112 14.2902 25.5508 15.6967C26.8903 17.1032 27.6429 19.0109 27.6429 21C27.6429 22.9891 26.8903 24.8968 25.5508 26.3033C24.2112 27.7098 22.3944 28.5 20.5 28.5Z" fill="#3EB489"/>
</svg>
