<svg width="40" height="35" viewBox="0 0 40 35" fill="none" xmlns="http://www.w3.org/2000/svg">
<path d="M38.5714 0.761719H1.42857C0.638393 0.761719 0 1.45234 0 2.30717V33.2163C0 34.0711 0.638393 34.7617 1.42857 34.7617H38.5714C39.3616 34.7617 40 34.0711 40 33.2163V2.30717C40 1.45234 39.3616 0.761719 38.5714 0.761719ZM34.9643 6.02109L20.8795 17.8776C20.5313 18.1722 20.0446 18.1722 19.6964 17.8776L5.60714 6.02109C5.55403 5.97675 5.51508 5.91554 5.49574 5.84605C5.4764 5.77655 5.47764 5.70225 5.4993 5.63355C5.52096 5.56486 5.56194 5.50522 5.61651 5.463C5.67107 5.42077 5.73648 5.39807 5.80357 5.39808H34.7679C34.8349 5.39807 34.9004 5.42077 34.9549 5.463C35.0095 5.50522 35.0505 5.56486 35.0721 5.63355C35.0938 5.70225 35.095 5.77655 35.0757 5.84605C35.0564 5.91554 35.0174 5.97675 34.9643 6.02109Z" fill="white"/>
</svg>
