<svg width="42" height="31" viewBox="0 0 42 31" fill="none" xmlns="http://www.w3.org/2000/svg">
<path d="M39.2 30.7617H2.8C2.05739 30.7617 1.3452 30.4456 0.820101 29.883C0.294999 29.3204 0 28.5574 0 27.7617L0 3.76172C0 2.96607 0.294999 2.20301 0.820101 1.6404C1.3452 1.07779 2.05739 0.761719 2.8 0.761719L39.2 0.761719C39.9426 0.761719 40.6548 1.07779 41.1799 1.6404C41.705 2.20301 42 2.96607 42 3.76172V27.7617C42 28.5574 41.705 29.3204 41.1799 29.883C40.6548 30.4456 39.9426 30.7617 39.2 30.7617ZM16.3707 13.668C16.3387 13.6684 16.3073 13.6765 16.2786 13.6917C16.2499 13.7068 16.2248 13.7286 16.205 13.7555C16.159 13.8056 16.1327 13.8727 16.1315 13.943C16.1315 13.9692 16.2458 14.343 16.4908 15.1092L17.0205 16.7667L17.2667 17.5392C17.5428 18.4059 17.6871 18.8667 17.6995 18.9217C17.1563 19.6422 16.6653 20.4061 16.2307 21.2067L16.1863 21.2942L16.184 21.3255C16.184 21.4505 16.2785 21.553 16.3963 21.553L16.4278 21.5505H16.4267H17.8477C17.9139 21.55 17.979 21.5316 18.0367 21.4968C18.0945 21.462 18.143 21.4121 18.1778 21.3517L18.179 21.3505L22.883 14.0767C22.9077 14.0418 22.9212 13.9993 22.9215 13.9555L22.9203 13.9367V13.938C22.9187 13.8678 22.8925 13.8008 22.8468 13.7505C22.8272 13.7237 22.8023 13.7019 22.7738 13.6868C22.7454 13.6717 22.7141 13.6635 22.6823 13.663H21.2602C21.1938 13.6634 21.1286 13.6819 21.0706 13.7166C21.0127 13.7514 20.9639 13.8013 20.9288 13.8617L20.9277 13.863L18.9677 16.9455L18.1568 13.9805C18.136 13.8901 18.0877 13.8098 18.0194 13.7523C17.9511 13.6948 17.8669 13.6633 17.78 13.663L17.7497 13.6642H17.7508L16.3707 13.668ZM32.6783 13.5292H32.648C31.7637 13.5292 30.9692 13.9405 30.4208 14.593L30.4185 14.5955C29.8188 15.26 29.484 16.1486 29.4852 17.073V17.1067V17.1055C29.4828 17.1417 29.4828 17.1855 29.4828 17.228C29.4828 17.8992 29.7267 18.5105 30.1233 18.9642L30.1222 18.963C30.3478 19.1984 30.6164 19.3815 30.9111 19.5006C31.2058 19.6198 31.5203 19.6725 31.8348 19.6555H31.829C32.2222 19.6505 32.5955 19.5642 32.9362 19.4092L32.9175 19.4167C33.2617 19.278 33.5533 19.0617 33.7832 18.7867L33.7855 18.7842C33.7738 18.8555 33.761 18.9155 33.7458 18.973L33.7482 18.9605C33.7273 19.037 33.7148 19.1159 33.7108 19.1955V19.198C33.7108 19.408 33.7913 19.5142 33.9512 19.5142H35.224C35.2737 19.519 35.3238 19.5131 35.3713 19.4967C35.4188 19.4804 35.4628 19.4541 35.5007 19.4192C35.5385 19.3844 35.5695 19.3418 35.5917 19.2939C35.6139 19.246 35.6269 19.1938 35.63 19.1405V19.1392L36.386 13.9805C36.3931 13.9415 36.3919 13.9014 36.3824 13.8631C36.3729 13.8247 36.3554 13.7892 36.3312 13.7592C36.3102 13.7282 36.2826 13.703 36.2508 13.6857C36.219 13.6683 36.1837 13.6592 36.148 13.6592H34.7445C34.573 13.6592 34.4645 13.878 34.4295 14.3117C34.2241 14.0294 33.9541 13.8088 33.6456 13.6715C33.3371 13.5342 33.0006 13.4847 32.669 13.528L32.6783 13.5267V13.5292ZM11.7215 13.5292H11.6888C10.8057 13.5292 10.0112 13.9405 9.46517 14.593L9.46283 14.5955C8.86312 15.26 8.52837 16.1486 8.5295 17.073V17.1067V17.1055C8.51404 17.4452 8.5627 17.7848 8.67255 18.104C8.7824 18.4232 8.95119 18.7153 9.16883 18.963L9.16767 18.9617C9.58067 19.3917 10.1453 19.6567 10.7683 19.6567L10.8803 19.6542H10.8745C11.2618 19.648 11.6293 19.5617 11.9642 19.408L11.9455 19.4155C12.2943 19.273 12.5907 19.058 12.8298 18.7842L12.831 18.783C12.7878 18.9055 12.761 19.048 12.7575 19.1955V19.198C12.7575 19.408 12.8392 19.5142 12.9978 19.5142H14.2695C14.3192 19.519 14.3693 19.5131 14.4168 19.4967C14.4643 19.4804 14.5083 19.4541 14.5462 19.4192C14.584 19.3844 14.615 19.3418 14.6372 19.2939C14.6594 19.246 14.6724 19.1938 14.6755 19.1405V19.1392L15.4327 13.9805C15.439 13.9418 15.4373 13.9022 15.4276 13.8643C15.4179 13.8265 15.4005 13.7915 15.3767 13.7617C15.3557 13.7307 15.3281 13.7055 15.2963 13.6882C15.2645 13.6708 15.2292 13.6617 15.1935 13.6617H13.79C13.6185 13.6617 13.51 13.8805 13.4762 14.3142C13.2687 14.0342 12.9981 13.8152 12.69 13.6779C12.3818 13.5406 12.0462 13.4894 11.7145 13.5292L11.7238 13.528L11.7215 13.5292ZM38.0473 10.7617L38.0287 10.7605C37.973 10.7603 37.9192 10.7825 37.8782 10.8228C37.8371 10.8631 37.8117 10.9185 37.807 10.978V10.9792L36.6077 19.2017C36.5978 19.2413 36.5977 19.2829 36.6073 19.3226C36.6169 19.3622 36.6359 19.3985 36.6625 19.428C36.6845 19.456 36.7121 19.4784 36.7431 19.4938C36.7742 19.5091 36.808 19.5169 36.8422 19.5167H38.0672L38.1045 19.5192C38.1973 19.5192 38.2863 19.4797 38.352 19.4094C38.4176 19.3391 38.4545 19.2437 38.4545 19.1442V19.1417L39.6515 11.0605L39.6527 11.033C39.6526 10.9617 39.6309 10.8924 39.5908 10.8355V10.8367C39.5699 10.8128 39.5446 10.7937 39.5165 10.7805C39.4884 10.7674 39.4581 10.7606 39.4275 10.7605L39.41 10.7617H39.4112H38.0473ZM24.4323 10.7617C24.3823 10.7547 24.3314 10.759 24.2829 10.7745C24.2345 10.7899 24.1897 10.8162 24.1514 10.8514C24.1131 10.8867 24.0822 10.9302 24.0606 10.9792C24.0391 11.0281 24.0274 11.0814 24.0263 11.1355L22.8282 19.2005C22.822 19.2388 22.8237 19.2781 22.8332 19.3157C22.8426 19.3533 22.8596 19.3882 22.883 19.418C22.9036 19.4491 22.9309 19.4744 22.9626 19.4918C22.9943 19.5092 23.0294 19.5182 23.065 19.518H24.5875C24.6558 19.5179 24.722 19.4925 24.7748 19.446C24.8275 19.3995 24.8636 19.3348 24.8768 19.263V19.2605L25.2093 16.968C25.2193 16.8676 25.2658 16.7755 25.3388 16.7117H25.34C25.4196 16.6428 25.5152 16.5983 25.6165 16.583H25.62C25.7145 16.5642 25.823 16.5542 25.9338 16.553H25.935C26.033 16.553 26.1497 16.5592 26.285 16.573C26.4329 16.5912 26.5818 16.5995 26.7307 16.598C27.5854 16.5995 28.4091 16.2543 29.036 15.6317L29.0337 15.6342C29.3463 15.279 29.5877 14.859 29.743 14.4C29.8983 13.941 29.9642 13.4528 29.9367 12.9655V12.9755C29.9618 12.6532 29.9102 12.3294 29.7868 12.0342C29.6633 11.7391 29.4721 11.4824 29.2308 11.288L29.2262 11.2842C28.6695 10.907 28.0173 10.724 27.3595 10.7605H27.3665L24.4323 10.7617ZM3.45333 10.7617C3.40453 10.7561 3.35517 10.7616 3.30846 10.7777C3.26175 10.7939 3.21874 10.8204 3.18221 10.8555C3.14568 10.8906 3.11646 10.9336 3.09644 10.9816C3.07642 11.0296 3.06605 11.0816 3.066 11.1342V11.1367L1.86667 19.2017C1.86041 19.2401 1.86208 19.2794 1.87155 19.317C1.88103 19.3546 1.89808 19.3895 1.9215 19.4192C1.94211 19.4503 1.96941 19.4756 2.00109 19.4931C2.03277 19.5105 2.0679 19.5194 2.1035 19.5192H3.50817C3.55825 19.5263 3.60915 19.5219 3.65755 19.5065C3.70596 19.491 3.75077 19.4648 3.78908 19.4295C3.82739 19.3942 3.85833 19.3507 3.87989 19.3018C3.90144 19.2528 3.91312 19.1996 3.91417 19.1455L4.24667 16.9717C4.25677 16.8717 4.30279 16.7798 4.375 16.7155H4.37617C4.45577 16.6465 4.55133 16.6021 4.65267 16.5867H4.65617C4.7594 16.5672 4.864 16.5572 4.96883 16.5567H4.97C5.068 16.5567 5.18467 16.563 5.32 16.5767C5.46754 16.5949 5.61599 16.6032 5.7645 16.6017C6.65467 16.6017 7.46433 16.2355 8.071 15.6355L8.06867 15.638C8.38117 15.2827 8.6225 14.8626 8.77779 14.4037C8.93309 13.9447 8.99907 13.4565 8.97167 12.9692V12.9792C8.99677 12.6569 8.9452 12.3331 8.82176 12.038C8.69832 11.7429 8.50705 11.4861 8.26583 11.2917L8.26117 11.288C7.70687 10.9122 7.05784 10.7288 6.40267 10.763H6.40967L3.45333 10.7617ZM32.6013 18.0555L32.5453 18.0567C32.2472 18.057 31.9587 17.9441 31.731 17.738L31.7333 17.7392C31.628 17.6353 31.544 17.5091 31.4866 17.3686C31.4292 17.2281 31.3996 17.0764 31.3997 16.923L31.4008 16.8667V16.833C31.4008 16.3655 31.577 15.9417 31.8628 15.6342C32.144 15.3255 32.536 15.1342 32.97 15.1342H33.0085H33.0062L33.0458 15.133C33.3597 15.133 33.6455 15.2567 33.8648 15.4605L33.8637 15.4592C33.972 15.5667 34.0584 15.697 34.1174 15.842C34.1765 15.987 34.2068 16.1435 34.2067 16.3017L34.2055 16.3617V16.3592V16.3892C34.2055 16.8505 34.027 17.268 33.7388 17.5642C33.5933 17.7196 33.4206 17.8427 33.2306 17.9266C33.0406 18.0104 32.8371 18.0534 32.6317 18.053H32.6025H32.6037L32.6013 18.0555ZM11.6258 18.0555L11.5675 18.0567C11.2618 18.0567 10.9807 17.9367 10.766 17.738L10.7672 17.7392C10.6646 17.6341 10.5829 17.5078 10.5272 17.3679C10.4714 17.2281 10.4427 17.0776 10.4428 16.9255L10.444 16.8667V16.833C10.444 16.3655 10.6202 15.9417 10.906 15.6342C11.1872 15.3255 11.578 15.1342 12.012 15.1342H12.0528H12.0505L12.0902 15.133C12.404 15.133 12.6898 15.2567 12.9092 15.4605L12.908 15.4592C13.016 15.5666 13.1022 15.6968 13.161 15.8416C13.2198 15.9863 13.2501 16.1426 13.2498 16.3005L13.2487 16.3617V16.3592V16.403C13.2487 16.8642 13.0702 17.2792 12.782 17.5755C12.483 17.8838 12.084 18.0559 11.669 18.0555H11.627H11.6293H11.6258ZM25.5173 14.8555L25.8312 12.7417C25.8337 12.7106 25.8419 12.6803 25.8553 12.6526C25.8687 12.6249 25.8871 12.6003 25.9095 12.5802C25.9318 12.5601 25.9576 12.5449 25.9854 12.5355C26.0132 12.5261 26.0425 12.5227 26.0715 12.5255H26.0703H26.4028L26.474 12.5242C26.6758 12.5242 26.8753 12.5392 27.0702 12.568L27.048 12.5655C27.2288 12.6005 27.3863 12.688 27.51 12.813C27.5805 12.8843 27.6366 12.9704 27.6749 13.0658C27.7132 13.1613 27.7329 13.2641 27.7328 13.368L27.7317 13.4155V13.413C27.7562 13.6218 27.7322 13.8339 27.6617 14.0304C27.5913 14.2268 27.4767 14.4016 27.328 14.5392L27.3268 14.5405C26.9551 14.7678 26.5288 14.8722 26.1018 14.8405H26.1088L25.5197 14.8605L25.5173 14.8555ZM4.54183 14.8555L4.85567 12.7417C4.85801 12.7105 4.86611 12.6802 4.8795 12.6524C4.89289 12.6246 4.91129 12.5999 4.93365 12.5798C4.95601 12.5597 4.98187 12.5445 5.00974 12.5352C5.03761 12.5259 5.06693 12.5226 5.096 12.5255H5.09483H5.44483C5.81836 12.4961 6.19228 12.5765 6.52633 12.758L6.51467 12.7517C6.73517 12.903 6.80983 13.2242 6.73633 13.7092C6.7307 13.8903 6.68452 14.0673 6.60168 14.2252C6.51883 14.3831 6.40176 14.5174 6.26033 14.6167L6.25683 14.6192C5.70386 14.8374 5.11178 14.9178 4.5255 14.8542L4.54183 14.8555Z" fill="#3EB489"/>
</svg>
