<svg width="14" height="15" viewBox="0 0 14 15" fill="none" xmlns="http://www.w3.org/2000/svg">
<path d="M1.55556 14.2344H12.4444C12.857 14.2344 13.2527 14.0705 13.5444 13.7788C13.8361 13.487 14 13.0914 14 12.6788V1.78993C14 1.37737 13.8361 0.98171 13.5444 0.689987C13.2527 0.398263 12.857 0.234375 12.4444 0.234375H1.55556C1.143 0.234375 0.747335 0.398263 0.455612 0.689987C0.163888 0.98171 0 1.37737 0 1.78993V12.6788C0 13.0914 0.163888 13.487 0.455612 13.7788C0.747335 14.0705 1.143 14.2344 1.55556 14.2344ZM3.11111 6.4566H6.22222V3.34549H7.77778V6.4566H10.8889V8.01215H7.77778V11.1233H6.22222V8.01215H3.11111V6.4566Z" fill="#3EB489"/>
</svg>
