<svg width="52" height="9" viewBox="0 0 52 9" fill="none" xmlns="http://www.w3.org/2000/svg">
<path d="M7.74143 3.5475L5.34319 3.18251L4.27111 0.906536C4.24183 0.844222 4.19365 0.793776 4.13415 0.763113C3.98491 0.685962 3.80355 0.750255 3.72893 0.906536L2.65685 3.18251L0.258607 3.5475C0.192487 3.55739 0.132035 3.59003 0.0857515 3.63948C0.0297973 3.69971 -0.0010361 3.78073 2.65856e-05 3.86475C0.00108927 3.94877 0.033961 4.02891 0.0914189 4.08756L1.82658 5.85908L1.41664 8.36057C1.40703 8.41876 1.41318 8.47861 1.43439 8.53333C1.4556 8.58804 1.49104 8.63544 1.53666 8.67014C1.58229 8.70485 1.6363 8.72547 1.69255 8.72967C1.7488 8.73387 1.80505 8.72148 1.85492 8.69391L4.00002 7.51289L6.14512 8.69391C6.20368 8.72655 6.27169 8.73743 6.33687 8.72556C6.50122 8.69588 6.61173 8.53268 6.5834 8.36057L6.17346 5.85908L7.90862 4.08756C7.95585 4.03909 7.98702 3.97579 7.99646 3.90655C8.02197 3.73345 7.90673 3.57321 7.74143 3.5475Z" fill="#FEC42D"/>
<path d="M18.7414 3.5475L16.3432 3.18251L15.2711 0.906536C15.2418 0.844222 15.1937 0.793776 15.1341 0.763113C14.9849 0.685962 14.8035 0.750255 14.7289 0.906536L13.6569 3.18251L11.2586 3.5475C11.1925 3.55739 11.132 3.59003 11.0858 3.63948C11.0298 3.69971 10.999 3.78073 11 3.86475C11.0011 3.94877 11.034 4.02891 11.0914 4.08756L12.8266 5.85908L12.4166 8.36057C12.407 8.41876 12.4132 8.47861 12.4344 8.53333C12.4556 8.58804 12.491 8.63544 12.5367 8.67014C12.5823 8.70485 12.6363 8.72547 12.6925 8.72967C12.7488 8.73387 12.805 8.72148 12.8549 8.69391L15 7.51289L17.1451 8.69391C17.2037 8.72655 17.2717 8.73743 17.3369 8.72556C17.5012 8.69588 17.6117 8.53268 17.5834 8.36057L17.1735 5.85908L18.9086 4.08756C18.9558 4.03909 18.987 3.97579 18.9965 3.90655C19.022 3.73345 18.9067 3.57321 18.7414 3.5475Z" fill="#FEC42D"/>
<path d="M29.7414 3.5475L27.3432 3.18251L26.2711 0.906536C26.2418 0.844222 26.1937 0.793776 26.1341 0.763113C25.9849 0.685962 25.8035 0.750255 25.7289 0.906536L24.6569 3.18251L22.2586 3.5475C22.1925 3.55739 22.132 3.59003 22.0858 3.63948C22.0298 3.69971 21.999 3.78073 22 3.86475C22.0011 3.94877 22.034 4.02891 22.0914 4.08756L23.8266 5.85908L23.4166 8.36057C23.407 8.41876 23.4132 8.47861 23.4344 8.53333C23.4556 8.58804 23.491 8.63544 23.5367 8.67014C23.5823 8.70485 23.6363 8.72547 23.6925 8.72967C23.7488 8.73387 23.805 8.72148 23.8549 8.69391L26 7.51289L28.1451 8.69391C28.2037 8.72655 28.2717 8.73743 28.3369 8.72556C28.5012 8.69588 28.6117 8.53268 28.5834 8.36057L28.1735 5.85908L29.9086 4.08756C29.9558 4.03909 29.987 3.97579 29.9965 3.90655C30.022 3.73345 29.9067 3.57321 29.7414 3.5475Z" fill="#FEC42D"/>
<path d="M40.7414 3.5475L38.3432 3.18251L37.2711 0.906536C37.2418 0.844222 37.1937 0.793776 37.1341 0.763113C36.9849 0.685962 36.8035 0.750255 36.7289 0.906536L35.6569 3.18251L33.2586 3.5475C33.1925 3.55739 33.132 3.59003 33.0858 3.63948C33.0298 3.69971 32.999 3.78073 33 3.86475C33.0011 3.94877 33.034 4.02891 33.0914 4.08756L34.8266 5.85908L34.4166 8.36057C34.407 8.41876 34.4132 8.47861 34.4344 8.53333C34.4556 8.58804 34.491 8.63544 34.5367 8.67014C34.5823 8.70485 34.6363 8.72547 34.6925 8.72967C34.7488 8.73387 34.805 8.72148 34.8549 8.69391L37 7.51289L39.1451 8.69391C39.2037 8.72655 39.2717 8.73743 39.3369 8.72556C39.5012 8.69588 39.6117 8.53268 39.5834 8.36057L39.1735 5.85908L40.9086 4.08756C40.9558 4.03909 40.987 3.97579 40.9965 3.90655C41.022 3.73345 40.9067 3.57321 40.7414 3.5475Z" fill="#FEC42D"/>
<path d="M51.7414 3.5475L49.3432 3.18251L48.2711 0.906536C48.2418 0.844222 48.1937 0.793776 48.1341 0.763113C47.9849 0.685962 47.8035 0.750255 47.7289 0.906536L46.6569 3.18251L44.2586 3.5475C44.1925 3.55739 44.132 3.59003 44.0858 3.63948C44.0298 3.69971 43.999 3.78073 44 3.86475C44.0011 3.94877 44.034 4.02891 44.0914 4.08756L45.8266 5.85908L45.4166 8.36057C45.407 8.41876 45.4132 8.47861 45.4344 8.53333C45.4556 8.58804 45.491 8.63544 45.5367 8.67014C45.5823 8.70485 45.6363 8.72547 45.6925 8.72967C45.7488 8.73387 45.805 8.72148 45.8549 8.69391L48 7.51289L50.1451 8.69391C50.2037 8.72655 50.2717 8.73743 50.3369 8.72556C50.5012 8.69588 50.6117 8.53268 50.5834 8.36057L50.1735 5.85908L51.9086 4.08756C51.9558 4.03909 51.987 3.97579 51.9965 3.90655C52.022 3.73345 51.9067 3.57321 51.7414 3.5475Z" fill="#FEC42D"/>
</svg>
