<svg width="8" height="9" viewBox="0 0 8 9" fill="none" xmlns="http://www.w3.org/2000/svg">
<path d="M7.74143 3.5475L5.34319 3.18251L4.27111 0.906536C4.24183 0.844222 4.19365 0.793776 4.13415 0.763113C3.98491 0.685962 3.80355 0.750255 3.72893 0.906536L2.65685 3.18251L0.258607 3.5475C0.192487 3.55739 0.132035 3.59003 0.0857515 3.63948C0.0297973 3.69971 -0.0010361 3.78073 2.65856e-05 3.86475C0.00108927 3.94877 0.033961 4.02891 0.0914189 4.08756L1.82658 5.85908L1.41664 8.36057C1.40703 8.41876 1.41318 8.47861 1.43439 8.53333C1.4556 8.58804 1.49104 8.63544 1.53666 8.67014C1.58229 8.70485 1.6363 8.72547 1.69255 8.72967C1.7488 8.73387 1.80505 8.72148 1.85492 8.69391L4.00002 7.51289L6.14512 8.69391C6.20368 8.72655 6.27169 8.73743 6.33687 8.72556C6.50122 8.69588 6.61173 8.53268 6.5834 8.36057L6.17346 5.85908L7.90862 4.08756C7.95585 4.03909 7.98702 3.97579 7.99646 3.90655C8.02197 3.73345 7.90673 3.57321 7.74143 3.5475V3.5475Z" fill="#FEC42D"/>
</svg>
