<svg width="60" height="61" viewBox="0 0 60 61" fill="none" xmlns="http://www.w3.org/2000/svg">
<path d="M30 0.285156C24.0666 0.285156 18.2664 2.04463 13.3329 5.34107C8.39943 8.63751 4.55426 13.3229 2.28363 18.8046C0.0129985 24.2864 -0.581101 30.3184 0.576455 36.1379C1.73401 41.9573 4.59123 47.3028 8.78681 51.4983C12.9824 55.6939 18.3279 58.5511 24.1473 59.7087C29.9667 60.8663 35.9987 60.2722 41.4805 58.0015C46.9623 55.7309 51.6476 51.8857 54.9441 46.9523C58.2405 42.0188 60 36.2186 60 30.2852C59.9848 22.3333 56.8191 14.7116 51.1964 9.08879C45.5736 3.46601 37.9518 0.300404 30 0.285156ZM43.6731 31.1794C43.5473 31.459 43.3713 31.7132 43.1539 31.9294L33.375 41.7082C33.1656 41.9236 32.9141 42.0936 32.6362 42.2077C32.3583 42.3219 32.06 42.3777 31.7596 42.3717C31.4549 42.3782 31.152 42.3228 30.8694 42.2087C30.5868 42.0947 30.3302 41.9244 30.1154 41.7082C29.6838 41.2756 29.4415 40.6895 29.4415 40.0784C29.4415 39.4673 29.6838 38.8812 30.1154 38.4486L35.9712 32.5928H18.4615C17.8495 32.5928 17.2625 32.3497 16.8298 31.9169C16.397 31.4842 16.1539 30.8972 16.1539 30.2852C16.1539 29.6731 16.397 29.0861 16.8298 28.6534C17.2625 28.2206 17.8495 27.9775 18.4615 27.9775H35.9712L30.1154 22.1217C29.7176 21.6827 29.5039 21.1076 29.5185 20.5154C29.5331 19.9232 29.7748 19.3593 30.1937 18.9404C30.6126 18.5215 31.1765 18.2798 31.7687 18.2652C32.3609 18.2506 32.936 18.4643 33.375 18.8621L43.1539 28.6409C43.3713 28.8571 43.5473 29.1113 43.6731 29.3909C43.9041 29.9647 43.9041 30.6056 43.6731 31.1794Z" fill="white"/>
</svg>
