<svg width="78" height="39" viewBox="0 0 78 39" fill="none" xmlns="http://www.w3.org/2000/svg">
<path d="M10 27.5H30V24.8333H10V27.5ZM10 20.8333H30V18.1667H10V20.8333ZM10 11.5V14.1667H30V11.5H10Z" fill="white"/>
<path d="M54 5.5C46.272 5.5 40 11.772 40 19.5C40 27.228 46.272 33.5 54 33.5C61.728 33.5 68 27.228 68 19.5C68 11.772 61.728 5.5 54 5.5ZM54 11.1C56.702 11.1 58.9 13.298 58.9 16C58.9 18.702 56.702 20.9 54 20.9C51.298 20.9 49.1 18.702 49.1 16C49.1 13.298 51.298 11.1 54 11.1ZM54 30.7C51.158 30.7 47.798 29.552 45.404 26.668C47.8562 24.744 50.8831 23.6983 54 23.6983C57.1169 23.6983 60.1438 24.744 62.596 26.668C60.202 29.552 56.842 30.7 54 30.7Z" fill="white"/>
<rect x="0.5" y="1" width="77" height="37" rx="18.5" stroke="white"/>
</svg>
