<svg width="62" height="581" viewBox="0 0 62 581" fill="none" xmlns="http://www.w3.org/2000/svg">
<path fill-rule="evenodd" clip-rule="evenodd" d="M30.566 60C47.4472 60 61.1321 46.5685 61.1321 30C61.1321 13.4315 47.4472 0 30.566 0C13.6849 0 0 13.4315 0 30C0 46.5685 13.6849 60 30.566 60ZM29.5805 44H32.8485V16.868H30.0745L22.7405 22.568L24.4885 24.81L27.3765 22.454C27.8832 22.0233 28.3012 21.6687 28.6305 21.39C28.9598 21.1113 29.3272 20.7693 29.7325 20.364C29.7072 20.8453 29.6818 21.314 29.6565 21.77C29.6312 22.2007 29.6058 22.6693 29.5805 23.176V25.038V44Z" fill="#3EB489"/>
<line x1="29.7832" y1="261" x2="29.7832" y2="59.9988" stroke="#3EB489" stroke-width="2"/>
<path fill-rule="evenodd" clip-rule="evenodd" d="M30.566 321C47.4472 321 61.1321 307.569 61.1321 291C61.1321 274.431 47.4472 261 30.566 261C13.6849 261 0 274.431 0 291C0 307.569 13.6849 321 30.566 321ZM21.1825 305H39.1185V301.96H25.4005V301.808L31.0625 296.222C32.1012 295.209 33.0512 294.233 33.9125 293.296C34.7738 292.359 35.5085 291.434 36.1165 290.522C36.7245 289.61 37.1932 288.685 37.5225 287.748C37.8518 286.785 38.0165 285.772 38.0165 284.708C38.0165 283.213 37.6745 281.934 36.9905 280.87C36.3318 279.781 35.3945 278.945 34.1785 278.362C32.9625 277.779 31.5058 277.488 29.8085 277.488C28.6685 277.488 27.5918 277.627 26.5785 277.906C25.5905 278.185 24.6658 278.565 23.8045 279.046C22.9685 279.527 22.1958 280.072 21.4865 280.68L23.2725 282.922C24.3112 282.111 25.3245 281.478 26.3125 281.022C27.3258 280.566 28.4912 280.338 29.8085 280.338C31.2272 280.338 32.3798 280.731 33.2665 281.516C34.1532 282.276 34.5965 283.403 34.5965 284.898C34.5965 286.114 34.3558 287.241 33.8745 288.28C33.3932 289.293 32.6838 290.332 31.7465 291.396C30.8092 292.46 29.6565 293.676 28.2885 295.044L21.1825 302.226V305Z" fill="#3EB489"/>
<line x1="29.7705" y1="520.002" x2="29.7705" y2="321" stroke="#3EB489" stroke-width="2"/>
<path fill-rule="evenodd" clip-rule="evenodd" d="M30.566 580.002C47.4472 580.002 61.1321 566.57 61.1321 550.002C61.1321 533.433 47.4472 520.002 30.566 520.002C13.6849 520.002 0 533.433 0 550.002C0 566.57 13.6849 580.002 30.566 580.002ZM37.4085 546.37C37.8645 545.483 38.0925 544.432 38.0925 543.216C38.0925 541.265 37.3958 539.657 36.0025 538.39C34.6345 537.123 32.5318 536.49 29.6945 536.49C28.4785 536.49 27.3512 536.617 26.3125 536.87C25.2738 537.123 24.3238 537.465 23.4625 537.896C22.6265 538.327 21.8792 538.795 21.2205 539.302L22.8925 541.582C23.5765 541.126 24.2478 540.733 24.9065 540.404C25.5905 540.049 26.3252 539.783 27.1105 539.606C27.8958 539.403 28.7698 539.302 29.7325 539.302C31.2525 539.302 32.4558 539.669 33.3425 540.404C34.2292 541.113 34.6725 542.127 34.6725 543.444C34.6725 544.457 34.4065 545.357 33.8745 546.142C33.3678 546.902 32.6078 547.497 31.5945 547.928C30.6065 548.359 29.3652 548.574 27.8705 548.574H25.2105V551.424H27.8325C29.4285 551.424 30.7965 551.589 31.9365 551.918C33.0765 552.247 33.9378 552.767 34.5205 553.476C35.1285 554.16 35.4325 555.072 35.4325 556.212C35.4325 557.884 34.8878 559.201 33.7985 560.164C32.7345 561.101 30.9865 561.57 28.5545 561.57C27.3385 561.57 26.0718 561.418 24.7545 561.114C23.4372 560.785 22.2085 560.341 21.0685 559.784V562.9C22.1832 563.457 23.3485 563.837 24.5645 564.04C25.7805 564.268 27.0978 564.382 28.5165 564.382C30.9232 564.382 32.8865 564.04 34.4065 563.356C35.9518 562.672 37.0918 561.722 37.8265 560.506C38.5612 559.265 38.9285 557.859 38.9285 556.288C38.9285 554.489 38.3965 553.033 37.3325 551.918C36.2685 550.803 34.6472 550.119 32.4685 549.866V549.714C33.6085 549.486 34.5965 549.093 35.4325 548.536C36.2938 547.979 36.9525 547.257 37.4085 546.37Z" fill="#3EB489"/>
</svg>
