<svg width="42" height="31" viewBox="0 0 42 31" fill="none" xmlns="http://www.w3.org/2000/svg">
<path d="M39.2 30.7617H2.8C2.05739 30.7617 1.3452 30.4456 0.820101 29.883C0.294999 29.3204 0 28.5574 0 27.7617L0 3.76172C0 2.96607 0.294999 2.20301 0.820101 1.6404C1.3452 1.07779 2.05739 0.761719 2.8 0.761719L39.2 0.761719C39.9426 0.761719 40.6548 1.07779 41.1799 1.6404C41.705 2.20301 42 2.96607 42 3.76172V27.7617C42 28.5574 41.705 29.3204 41.1799 29.883C40.6548 30.4456 39.9426 30.7617 39.2 30.7617ZM20.8133 19.2142L20.3945 22.0267C21.4649 22.5094 22.6208 22.7359 23.7813 22.6905H23.7685C25.1285 22.7755 26.4753 22.3644 27.5893 21.5242L27.5695 21.538C28.0243 21.1798 28.3942 20.712 28.6491 20.1724C28.9041 19.6328 29.037 19.0365 29.0372 18.4317V18.413V18.4142C29.0372 17.0392 28.1785 15.8967 26.4857 15.0142C26.0237 14.7754 25.5819 14.4943 25.165 14.1742L25.1918 14.1942C25.0754 14.1134 24.9784 14.0043 24.9089 13.8756C24.8394 13.747 24.7992 13.6026 24.7917 13.4542V13.4517C24.8004 13.2969 24.8455 13.147 24.9228 13.0158C25.0001 12.8847 25.1071 12.7767 25.2338 12.7017L25.2385 12.6992C25.6301 12.4572 26.0801 12.3453 26.5312 12.378H26.5242H26.6175L26.7073 12.3767C27.4587 12.3767 28.1715 12.5505 28.8143 12.8617L28.7817 12.848L29.0547 13.0042L29.4735 10.2905C28.6265 9.93856 27.7255 9.75964 26.817 9.76297H26.7598H26.7633C25.4488 9.7013 24.1527 10.1113 23.0802 10.928L23.0988 10.9142C22.6531 11.2513 22.2893 11.6982 22.0382 12.2171C21.7871 12.7361 21.6559 13.3121 21.6557 13.8967V13.903C21.644 15.2255 22.533 16.368 24.2993 17.303C24.766 17.5217 25.1685 17.7892 25.529 18.1105L25.5208 18.103C25.6249 18.1967 25.7095 18.3128 25.7692 18.4437C25.8288 18.5746 25.8623 18.7174 25.8673 18.863V18.868C25.8673 19.2667 25.6457 19.6092 25.326 19.763L25.3202 19.7655C24.9702 19.963 24.5548 20.078 24.1138 20.078H24.0602H24.0625H23.975C22.9752 20.078 22.0278 19.8405 21.1785 19.4155L21.2193 19.4342L20.8192 19.2192L20.8133 19.2142ZM32.6258 20.6405H36.4933C36.5556 20.9263 36.6773 21.5513 36.8585 22.5155H39.6667L37.2237 9.97672H34.8903C34.5568 9.94505 34.2225 10.0295 33.9373 10.2175C33.6521 10.4056 33.4311 10.6872 33.3072 11.0205L33.3037 11.0317L28.8237 22.5155H31.997L32.634 20.6417L32.6258 20.6405ZM17.3728 9.97672L15.4758 22.5155H18.5022L20.398 9.97672H17.3728ZM5.74233 12.5355L8.204 22.4955H11.3937L16.1478 9.97672H12.9442L9.98783 18.5317L9.6775 16.793L8.62283 11.0317C8.5663 10.6994 8.39149 10.4037 8.13529 10.2068C7.8791 10.01 7.56155 9.92748 7.24967 9.97672L7.25667 9.97547H2.37183L2.33567 10.2292C6.097 11.253 8.568 13.4617 9.681 16.7917C9.33898 15.8402 8.81159 14.9777 8.134 14.2617L8.13283 14.2605C7.46715 13.5281 6.67088 12.9466 5.79133 12.5505L5.74467 12.5317L5.74233 12.5355ZM36.0022 18.0617H33.4822C33.6525 17.5801 34.0538 16.4134 34.6862 14.5617L34.7398 14.3855L34.9265 13.878C35.0035 13.6705 35.0548 13.5005 35.0898 13.3705L35.3092 14.4442L36.001 18.0567L36.0022 18.0617Z" fill="#3EB489"/>
</svg>
